<svg width="153" height="153" viewBox="0 0 153 153" fill="none" xmlns="http://www.w3.org/2000/svg">
<circle cx="76.5" cy="76.5" r="76.5" fill="#171834"/>
<path d="M59.8318 108.326C58.3103 108.325 56.8512 107.721 55.7745 106.646C54.6979 105.571 54.0917 104.113 54.0889 102.591V57.1108C54.0889 56.8743 54.1828 56.6474 54.3501 56.4801C54.5174 56.3129 54.7442 56.2189 54.9808 56.2189C55.2173 56.2189 55.4442 56.3129 55.6114 56.4801C55.7787 56.6474 55.8727 56.8743 55.8727 57.1108V102.591C55.8883 103.631 56.3123 104.623 57.0532 105.353C57.794 106.083 58.7923 106.492 59.8322 106.492C60.8722 106.492 61.8704 106.083 62.6113 105.353C63.3521 104.623 63.7762 103.631 63.7918 102.591V98.3367C63.7918 98.1002 63.8857 97.8733 64.053 97.7061C64.2203 97.5388 64.4471 97.4448 64.6837 97.4448H100.02V51.639C100.019 50.5892 99.6017 49.5826 98.8593 48.8402C98.1169 48.0978 97.1103 47.6802 96.0604 47.679H49.6678C49.4312 47.679 49.2044 47.5851 49.0371 47.4178C48.8698 47.2506 48.7759 47.0237 48.7759 46.7872C48.7759 46.5506 48.8698 46.3238 49.0371 46.1565C49.2044 45.9892 49.4312 45.8953 49.6678 45.8953H96.0604C97.5833 45.8969 99.0433 46.5026 100.12 47.5794C101.197 48.6562 101.803 50.1162 101.804 51.639V98.3367C101.804 98.5733 101.71 98.8001 101.543 98.9674C101.376 99.1347 101.149 99.2286 100.912 99.2286H65.5756V102.591C65.5725 104.113 64.9661 105.571 63.8893 106.646C62.8126 107.721 61.3534 108.325 59.8318 108.326Z" fill="#FFB800"/>
<path d="M100.58 108.328H59.8335C59.597 108.328 59.3701 108.234 59.2029 108.067C59.0356 107.899 58.9417 107.672 58.9417 107.436C58.9417 107.199 59.0356 106.972 59.2029 106.805C59.3701 106.638 59.597 106.544 59.8335 106.544C60.8823 106.544 61.8881 106.128 62.6305 105.387C63.3729 104.647 63.7912 103.642 63.7935 102.593V98.3385C63.7935 98.102 63.8875 97.8751 64.0548 97.7079C64.222 97.5406 64.4489 97.4467 64.6854 97.4467H105.422C105.658 97.4467 105.885 97.5406 106.052 97.7079C106.22 97.8751 106.314 98.102 106.314 98.3385V102.593C106.312 104.113 105.708 105.571 104.633 106.646C103.558 107.721 102.1 108.326 100.58 108.328ZM63.9933 106.544H100.58C101.627 106.543 102.631 106.126 103.372 105.385C104.112 104.645 104.529 103.64 104.53 102.593V99.2304H65.5773V102.593C65.5785 104.065 65.011 105.48 63.9933 106.544Z" fill="#FFB800"/>
<path d="M72.4494 92.3486C72.2867 92.3487 72.127 92.3043 71.9878 92.2202C71.8485 92.1361 71.7348 92.0155 71.6592 91.8715L70.3552 89.3875L67.6849 90.2411C67.522 90.2934 67.3475 90.2978 67.1822 90.2537C67.0168 90.2095 66.8677 90.1188 66.7525 89.9922C66.6373 89.8657 66.561 89.7087 66.5326 89.54C66.5042 89.3712 66.5249 89.1979 66.5923 89.0406L70.3981 80.1279C70.4909 79.9103 70.6664 79.7385 70.8859 79.6502C71.1054 79.562 71.351 79.5646 71.5687 79.6574C71.7863 79.7503 71.9581 79.9258 72.0463 80.1453C72.1346 80.3648 72.132 80.6104 72.0391 80.828L68.9987 87.948L70.5247 87.4611C70.7246 87.3969 70.9407 87.4052 71.135 87.4847C71.3293 87.5641 71.4893 87.7096 71.5869 87.8954L72.3647 89.3768L75.6272 81.7066C75.6709 81.5957 75.7363 81.4947 75.8196 81.4095C75.9029 81.3244 76.0024 81.2568 76.1123 81.2107C76.2222 81.1647 76.3402 81.1411 76.4593 81.1414C76.5784 81.1417 76.6963 81.1658 76.806 81.2124C76.9156 81.259 77.0148 81.3271 77.0977 81.4127C77.1806 81.4983 77.2455 81.5996 77.2886 81.7107C77.3317 81.8217 77.3521 81.9403 77.3486 82.0594C77.3451 82.1785 77.3178 82.2957 77.2683 82.404L73.2691 91.8055C73.2031 91.9606 73.0946 92.0939 72.956 92.1899C72.8174 92.2859 72.6544 92.3406 72.486 92.3477L72.4494 92.3486Z" fill="#FFB800"/>
<path d="M82.5036 92.3486H82.4671C82.2983 92.3418 82.135 92.2872 81.996 92.1912C81.8571 92.0952 81.7483 91.9617 81.6822 91.8063L77.6946 82.4013C77.6021 82.1834 77.5999 81.9378 77.6886 81.7183C77.7772 81.4989 77.9494 81.3236 78.1673 81.2311C78.3851 81.1387 78.6308 81.1365 78.8502 81.2251C79.0697 81.3138 79.2449 81.486 79.3374 81.7038L82.5919 89.3741L83.3688 87.8945C83.4664 87.7088 83.6263 87.5635 83.8204 87.4841C84.0145 87.4047 84.2304 87.3962 84.4301 87.4601L85.9544 87.9471L82.9175 80.8467C82.868 80.7386 82.8407 80.6216 82.8371 80.5027C82.8335 80.3838 82.8537 80.2653 82.8966 80.1544C82.9394 80.0434 83.0041 79.9421 83.0867 79.8565C83.1692 79.7709 83.2681 79.7027 83.3775 79.6559C83.4868 79.609 83.6045 79.5846 83.7234 79.5839C83.8424 79.5832 83.9603 79.6063 84.0701 79.6519C84.18 79.6974 84.2797 79.7645 84.3633 79.8492C84.4468 79.9338 84.5126 80.0344 84.5568 80.1448L88.3589 89.0405C88.4261 89.1976 88.4467 89.3707 88.4184 89.5392C88.39 89.7077 88.3139 89.8645 88.1989 89.991C88.084 90.1175 87.9352 90.2082 87.7702 90.2526C87.6052 90.2969 87.4309 90.2929 87.2681 90.241L84.5978 89.3875L83.2939 91.8714C83.2182 92.0155 83.1046 92.1361 82.9653 92.2202C82.826 92.3043 82.6663 92.3487 82.5036 92.3486Z" fill="#FFB800"/>
<path d="M77.4805 83.4091C76.9958 83.4091 76.5249 83.2471 76.1427 82.9489L74.7201 81.842C74.6353 81.7799 74.5303 81.7519 74.4258 81.7636L72.642 82.0115C72.1616 82.0801 71.672 81.9856 71.2516 81.743C70.8312 81.5005 70.5042 81.124 70.3231 80.6737L69.648 79.0067C69.6284 78.9569 69.5991 78.9115 69.5617 78.8732C69.5243 78.8349 69.4797 78.8045 69.4303 78.7837L67.7634 78.1086C67.3135 77.9269 66.9373 77.5999 66.6949 77.1797C66.4524 76.7594 66.3576 76.2701 66.4256 75.7897L66.6726 74.0059C66.6801 73.9539 66.6769 73.9009 66.6633 73.8501C66.6496 73.7994 66.6258 73.7519 66.5932 73.7107L65.4864 72.2836C65.188 71.9015 65.0259 71.4306 65.0259 70.9458C65.0259 70.461 65.188 69.9901 65.4864 69.608L66.5914 68.1809C66.624 68.1395 66.6479 68.0919 66.6616 68.041C66.6754 67.9902 66.6789 67.937 66.6717 67.8848L66.4247 66.101C66.3567 65.6206 66.4515 65.1313 66.694 64.711C66.9364 64.2908 67.3126 63.9638 67.7625 63.7821L69.4303 63.1061C69.4793 63.0865 69.5237 63.0572 69.561 63.02C69.5982 62.9827 69.6275 62.9383 69.6471 62.8893L70.3231 61.2215C70.5045 60.7714 70.8315 60.3951 71.2518 60.1526C71.6721 59.9101 72.1616 59.8154 72.642 59.8837L74.4258 60.1316C74.478 60.1389 74.5312 60.1356 74.5821 60.1218C74.633 60.108 74.6805 60.084 74.7219 60.0513L76.1436 58.9454C76.526 58.6476 76.9968 58.4858 77.4814 58.4858C77.9661 58.4858 78.4369 58.6476 78.8193 58.9454L80.2418 60.0522C80.2833 60.0847 80.3309 60.1085 80.3818 60.1222C80.4327 60.1358 80.4858 60.139 80.538 60.1316L82.3217 59.8837C82.8021 59.8157 83.2915 59.9105 83.7117 60.153C84.132 60.3954 84.459 60.7716 84.6407 61.2215L85.3158 62.8893C85.3358 62.9384 85.3655 62.9829 85.403 63.0203C85.4405 63.0577 85.4852 63.0871 85.5343 63.107L87.2013 63.7821C87.6509 63.9642 88.0268 64.2912 88.2692 64.7114C88.5116 65.1316 88.6066 65.6207 88.5391 66.101L88.2912 67.8848C88.2774 67.9899 88.306 68.0961 88.3705 68.18L89.4765 69.6071C89.7753 69.989 89.9377 70.46 89.9377 70.9449C89.9377 71.4299 89.7753 71.9008 89.4765 72.2827L88.3697 73.7053C88.3056 73.7895 88.2774 73.8956 88.2912 74.0005L88.5391 75.7843C88.6066 76.2647 88.5116 76.7538 88.2692 77.174C88.0268 77.5941 87.6509 77.9212 87.2013 78.1032L85.5299 78.7837C85.4808 78.8037 85.4363 78.8333 85.3988 78.8706C85.3613 78.908 85.3315 78.9524 85.3114 79.0014L84.6371 80.6683C84.4551 81.1179 84.128 81.4938 83.7078 81.7362C83.2876 81.9786 82.7985 82.0736 82.3182 82.0062L80.5344 81.7582C80.4291 81.7446 80.3227 81.7732 80.2383 81.8376L78.8166 82.9435C78.4357 83.2435 77.9654 83.4074 77.4805 83.4091ZM74.4758 79.9762C74.96 79.9771 75.4303 80.1379 75.8136 80.4337L77.2406 81.5415C77.3098 81.595 77.3948 81.624 77.4823 81.624C77.5698 81.624 77.6548 81.595 77.724 81.5415L79.1457 80.4346C79.3759 80.2565 79.6392 80.1261 79.9204 80.0509C80.2015 79.9757 80.4949 79.9573 80.7832 79.9967L82.567 80.2438C82.654 80.2581 82.7434 80.2419 82.8198 80.1978C82.8962 80.1538 82.955 80.0846 82.9862 80.0021L83.6614 78.3342C83.7715 78.0639 83.9346 77.8184 84.1411 77.6121C84.3476 77.4058 84.5932 77.2428 84.8636 77.1329L86.5315 76.4577C86.6127 76.4247 86.6806 76.3656 86.7244 76.2897C86.7682 76.2137 86.7854 76.1253 86.7732 76.0385L86.5261 74.2547C86.4866 73.9669 86.5048 73.6741 86.5797 73.3934C86.6545 73.1127 86.7846 72.8498 86.9622 72.6199L88.07 71.1929C88.1237 71.1239 88.1529 71.039 88.1529 70.9516C88.1529 70.8642 88.1237 70.7793 88.07 70.7103L86.964 69.2833C86.7863 69.0543 86.656 68.7922 86.5805 68.5123C86.505 68.2324 86.4859 67.9403 86.5243 67.6529L86.7714 65.8692C86.7836 65.7823 86.7664 65.6939 86.7226 65.618C86.6788 65.542 86.6109 65.4829 86.5297 65.45L84.8618 64.7739C84.5916 64.6641 84.3461 64.5013 84.1398 64.2951C83.9335 64.0889 83.7705 63.8436 83.6605 63.5734L82.9844 61.9056C82.9521 61.8238 82.8932 61.7553 82.8171 61.7113C82.741 61.6672 82.6522 61.6502 82.5652 61.663L80.7814 61.9109C80.4934 61.9504 80.2003 61.9321 79.9194 61.8569C79.6386 61.7817 79.3755 61.6512 79.1457 61.473L77.7187 60.3662C77.6497 60.3122 77.5646 60.2829 77.477 60.2829C77.3894 60.2829 77.3043 60.3122 77.2353 60.3662L75.8083 61.4721C75.578 61.6495 75.3149 61.7796 75.0342 61.8549C74.7535 61.9302 74.4606 61.9493 74.1725 61.9109L72.3887 61.663C72.3019 61.6512 72.2135 61.6686 72.1376 61.7125C72.0617 61.7564 72.0026 61.8244 71.9695 61.9056L71.2935 63.5734C71.1835 63.8434 71.0207 64.0888 70.8145 64.2949C70.6083 64.5011 70.363 64.6639 70.093 64.7739L68.4252 65.4491C68.344 65.4821 68.276 65.5412 68.2321 65.6171C68.1882 65.693 68.1708 65.7814 68.1826 65.8683L68.4305 67.652C68.47 67.9404 68.4514 68.2337 68.3759 68.5147C68.3004 68.7958 68.1694 69.0589 67.9908 69.2887L66.8938 70.7121C66.8398 70.7811 66.8105 70.8662 66.8105 70.9538C66.8105 71.0414 66.8398 71.1265 66.8938 71.1955L68.0006 72.6226C68.1787 72.8524 68.3091 73.1155 68.3843 73.3963C68.4595 73.6772 68.4779 73.9702 68.4386 74.2583L68.1906 76.0421C68.1785 76.129 68.1958 76.2175 68.2397 76.2934C68.2837 76.3694 68.3518 76.4285 68.4332 76.4613L70.101 77.1373C70.371 77.2474 70.6162 77.4103 70.8224 77.6165C71.0285 77.8226 71.1914 78.0679 71.3015 78.3378L71.9776 80.0065C72.0107 80.0874 72.0698 80.155 72.1455 80.1988C72.2212 80.2425 72.3092 80.2599 72.3959 80.2482L74.1797 80.0012C74.2777 79.9862 74.3766 79.9779 74.4758 79.9762Z" fill="#FFB800"/>
<path d="M77.4805 83.4091C76.9958 83.4091 76.5249 83.2471 76.1427 82.9489L74.7201 81.842C74.6353 81.7799 74.5303 81.7519 74.4258 81.7636L72.642 82.0115C72.1616 82.0801 71.672 81.9856 71.2516 81.743C70.8312 81.5005 70.5042 81.124 70.3231 80.6737L69.648 79.0067C69.6284 78.9569 69.5991 78.9115 69.5617 78.8732C69.5243 78.8349 69.4797 78.8045 69.4303 78.7837L67.7634 78.1086C67.3135 77.9269 66.9373 77.5999 66.6949 77.1797C66.4524 76.7594 66.3576 76.2701 66.4256 75.7897L66.6726 74.0059C66.6801 73.9539 66.6769 73.9009 66.6633 73.8501C66.6496 73.7994 66.6258 73.7519 66.5932 73.7107L65.4864 72.2836C65.188 71.9015 65.0259 71.4306 65.0259 70.9458C65.0259 70.461 65.188 69.9901 65.4864 69.608L66.5914 68.1809C66.624 68.1395 66.6479 68.0919 66.6616 68.041C66.6754 67.9902 66.6789 67.937 66.6717 67.8848L66.4247 66.101C66.3567 65.6206 66.4515 65.1313 66.694 64.711C66.9364 64.2908 67.3126 63.9638 67.7625 63.7821L69.4303 63.1061C69.4793 63.0865 69.5237 63.0572 69.561 63.02C69.5982 62.9827 69.6275 62.9383 69.6471 62.8893L70.3231 61.2215C70.5045 60.7714 70.8315 60.3951 71.2518 60.1526C71.6721 59.9101 72.1616 59.8154 72.642 59.8837L74.4258 60.1316C74.478 60.1389 74.5312 60.1356 74.5821 60.1218C74.633 60.108 74.6805 60.084 74.7219 60.0513L76.1436 58.9454C76.526 58.6476 76.9968 58.4858 77.4814 58.4858C77.9661 58.4858 78.4369 58.6476 78.8193 58.9454L80.2418 60.0522C80.2833 60.0847 80.3309 60.1085 80.3818 60.1222C80.4327 60.1358 80.4858 60.139 80.538 60.1316L82.3217 59.8837C82.8021 59.8157 83.2915 59.9105 83.7117 60.153C84.132 60.3954 84.459 60.7716 84.6407 61.2215L85.3158 62.8893C85.3358 62.9384 85.3655 62.9829 85.403 63.0203C85.4405 63.0577 85.4852 63.0871 85.5343 63.107L87.2013 63.7821C87.6509 63.9642 88.0268 64.2912 88.2692 64.7114C88.5116 65.1316 88.6066 65.6207 88.5391 66.101L88.2912 67.8848C88.2774 67.9899 88.306 68.0961 88.3705 68.18L89.4765 69.6071C89.7753 69.989 89.9377 70.46 89.9377 70.9449C89.9377 71.4299 89.7753 71.9008 89.4765 72.2827L88.3697 73.7053C88.3056 73.7895 88.2774 73.8956 88.2912 74.0005L88.5391 75.7843C88.6066 76.2647 88.5116 76.7538 88.2692 77.174C88.0268 77.5941 87.6509 77.9212 87.2013 78.1032L85.5299 78.7837C85.4808 78.8037 85.4363 78.8333 85.3988 78.8706C85.3613 78.908 85.3315 78.9524 85.3114 79.0014L84.6371 80.6683C84.4551 81.1179 84.128 81.4938 83.7078 81.7362C83.2876 81.9786 82.7985 82.0736 82.3182 82.0062L80.5344 81.7582C80.4291 81.7446 80.3227 81.7732 80.2383 81.8376L78.8166 82.9435C78.4357 83.2435 77.9654 83.4074 77.4805 83.4091ZM74.4758 79.9762C74.96 79.9771 75.4303 80.1379 75.8136 80.4337L77.2406 81.5415C77.3098 81.595 77.3948 81.624 77.4823 81.624C77.5698 81.624 77.6548 81.595 77.724 81.5415L79.1457 80.4346C79.3759 80.2565 79.6392 80.1261 79.9204 80.0509C80.2015 79.9757 80.4949 79.9573 80.7832 79.9967L82.567 80.2438C82.654 80.2581 82.7434 80.2419 82.8198 80.1978C82.8962 80.1538 82.955 80.0846 82.9862 80.0021L83.6614 78.3342C83.7715 78.0639 83.9346 77.8184 84.1411 77.6121C84.3476 77.4058 84.5932 77.2428 84.8636 77.1329L86.5315 76.4577C86.6127 76.4247 86.6806 76.3656 86.7244 76.2897C86.7682 76.2137 86.7854 76.1253 86.7732 76.0385L86.5261 74.2547C86.4866 73.9669 86.5048 73.6741 86.5797 73.3934C86.6545 73.1127 86.7846 72.8498 86.9622 72.6199L88.07 71.1929C88.1237 71.1239 88.1529 71.039 88.1529 70.9516C88.1529 70.8642 88.1237 70.7793 88.07 70.7103L86.964 69.2833C86.7863 69.0543 86.656 68.7922 86.5805 68.5123C86.505 68.2324 86.4859 67.9403 86.5243 67.6529L86.7714 65.8692C86.7836 65.7823 86.7664 65.6939 86.7226 65.618C86.6788 65.542 86.6109 65.4829 86.5297 65.45L84.8618 64.7739C84.5916 64.6641 84.3461 64.5013 84.1398 64.2951C83.9335 64.0889 83.7705 63.8436 83.6605 63.5734L82.9844 61.9056C82.9521 61.8238 82.8932 61.7553 82.8171 61.7113C82.741 61.6672 82.6522 61.6502 82.5652 61.663L80.7814 61.9109C80.4934 61.9504 80.2003 61.9321 79.9194 61.8569C79.6386 61.7817 79.3755 61.6512 79.1457 61.473L77.7187 60.3662C77.6497 60.3122 77.5646 60.2829 77.477 60.2829C77.3894 60.2829 77.3043 60.3122 77.2353 60.3662L75.8083 61.4721C75.578 61.6495 75.3149 61.7796 75.0342 61.8549C74.7535 61.9302 74.4606 61.9493 74.1725 61.9109L72.3887 61.663C72.3019 61.6512 72.2135 61.6686 72.1376 61.7125C72.0617 61.7564 72.0026 61.8244 71.9695 61.9056L71.2935 63.5734C71.1835 63.8434 71.0207 64.0888 70.8145 64.2949C70.6083 64.5011 70.363 64.6639 70.093 64.7739L68.4252 65.4491C68.344 65.4821 68.276 65.5412 68.2321 65.6171C68.1882 65.693 68.1708 65.7814 68.1826 65.8683L68.4305 67.652C68.47 67.9404 68.4514 68.2337 68.3759 68.5147C68.3004 68.7958 68.1694 69.0589 67.9908 69.2887L66.8938 70.7121C66.8398 70.7811 66.8105 70.8662 66.8105 70.9538C66.8105 71.0414 66.8398 71.1265 66.8938 71.1955L68.0006 72.6226C68.1787 72.8524 68.3091 73.1155 68.3843 73.3963C68.4595 73.6772 68.4779 73.9702 68.4386 74.2583L68.1906 76.0421C68.1785 76.129 68.1958 76.2175 68.2397 76.2934C68.2837 76.3694 68.3518 76.4285 68.4332 76.4613L70.101 77.1373C70.371 77.2474 70.6162 77.4103 70.8224 77.6165C71.0285 77.8226 71.1914 78.0679 71.3015 78.3378L71.9776 80.0065C72.0107 80.0874 72.0698 80.155 72.1455 80.1988C72.2212 80.2425 72.3092 80.2599 72.3959 80.2482L74.1797 80.0012C74.2777 79.9862 74.3766 79.9779 74.4758 79.9762Z" fill="#FFB800"/>
<path d="M74.3161 76.7146C74.1863 76.7145 74.058 76.6861 73.9403 76.6313C73.8226 76.5765 73.7183 76.4967 73.6346 76.3974C73.5509 76.2981 73.49 76.1818 73.4559 76.0565C73.4219 75.9312 73.4156 75.7999 73.4376 75.672L73.962 72.611L71.7385 70.4428C71.6208 70.3265 71.5378 70.1797 71.4988 70.0189C71.4598 69.858 71.4663 69.6895 71.5176 69.5322C71.5688 69.3748 71.6629 69.2349 71.7892 69.1279C71.9154 69.021 72.069 68.9513 72.2326 68.9266L75.3061 68.4807L76.6805 65.6962C76.7626 65.5571 76.8795 65.4419 77.0197 65.3618C77.1599 65.2817 77.3186 65.2396 77.4801 65.2396C77.6416 65.2396 77.8002 65.2817 77.9405 65.3618C78.0807 65.4419 78.1976 65.5571 78.2797 65.6962L79.6567 68.4753L82.7293 68.9212C82.8941 68.945 83.049 69.0145 83.1764 69.1217C83.3037 69.229 83.3985 69.3697 83.4501 69.5281C83.5016 69.6864 83.5077 69.856 83.4678 70.0177C83.4279 70.1793 83.3436 70.3266 83.2243 70.4428L80.9946 72.611L81.519 75.672C81.547 75.8359 81.5286 76.0043 81.4659 76.1583C81.4032 76.3123 81.2988 76.4458 81.1643 76.5435C81.0298 76.6413 80.8706 76.6995 80.7048 76.7116C80.539 76.7237 80.373 76.6892 80.2258 76.612L77.4761 75.1672L74.7282 76.612C74.6011 76.6789 74.4597 76.7141 74.3161 76.7146ZM77.4796 73.2674C77.6242 73.2675 77.7665 73.3027 77.8944 73.37L79.4596 74.1932L79.1609 72.4514C79.1364 72.3089 79.1469 72.1626 79.1915 72.0251C79.2361 71.8876 79.3134 71.763 79.4168 71.662L80.6833 70.4285L78.9343 70.1744C78.7912 70.1536 78.6553 70.0983 78.5383 70.0133C78.4213 69.9283 78.3267 69.8162 78.2627 69.6865L77.4796 68.1007L76.6975 69.6865C76.6336 69.8163 76.539 69.9287 76.422 70.0138C76.305 70.099 76.1691 70.1544 76.0259 70.1752L74.2769 70.4294L75.5425 71.6629C75.6459 71.7639 75.7232 71.8885 75.7678 72.026C75.8124 72.1635 75.8229 72.3098 75.7984 72.4522L75.5005 74.195L77.064 73.3718C77.1922 73.3042 77.3347 73.2684 77.4796 73.2674Z" fill="#FFB800"/>
<path d="M54.9951 58.0027H45.2922C45.0556 58.0027 44.8288 57.9087 44.6615 57.7414C44.4942 57.5742 44.4003 57.3473 44.4003 57.1108V51.6301C44.4191 50.1193 45.0325 48.6767 46.1075 47.615C47.1826 46.5533 48.6327 45.9579 50.1436 45.9579C51.6546 45.9579 53.1047 46.5533 54.1797 47.615C55.2547 48.6767 55.8681 50.1193 55.8869 51.6301V57.1108C55.8869 57.3473 55.793 57.5742 55.6257 57.7414C55.4585 57.9087 55.2316 58.0027 54.9951 58.0027ZM46.1841 56.2189H54.1032V51.6301C54.0876 50.5903 53.6635 49.5983 52.9227 48.8684C52.1818 48.1386 51.1836 47.7295 50.1436 47.7295C49.1036 47.7295 48.1054 48.1386 47.3646 48.8684C46.6237 49.5983 46.1997 50.5903 46.1841 51.6301V56.2189Z" fill="#FFB800"/>
</svg>
