<svg width="153" height="153" viewBox="0 0 153 153" fill="none" xmlns="http://www.w3.org/2000/svg">
<circle cx="76.5" cy="76.5" r="76.5" fill="#171834"/>
<path d="M91.5306 65.0962C90.3828 64.1294 88.9252 63.6674 87.4321 63.7959C85.9368 63.9241 84.5812 64.6269 83.615 65.7748L75.2202 75.7439L71.1687 71.5304C69.0219 69.2974 65.4583 69.2275 63.2255 71.3746C62.1437 72.4145 61.5319 73.8135 61.5025 75.3138C61.473 76.8142 62.0297 78.2361 63.0697 79.3178L71.4472 88.0307C72.5007 89.1264 73.9765 89.7548 75.4966 89.7548C75.5578 89.7548 75.619 89.7537 75.6818 89.7517C77.2713 89.6994 78.7701 88.9717 79.7939 87.7556L92.2091 73.012C93.1758 71.8643 93.6375 70.4088 93.5094 68.9136C93.381 67.4185 92.6783 66.0626 91.5306 65.0962ZM90.2371 71.351L77.8218 86.0949C77.2679 86.7528 76.4569 87.1464 75.5985 87.1748C74.7401 87.2018 73.8993 86.8609 73.3058 86.2437L64.9282 77.5308C64.3655 76.9454 64.0644 76.176 64.0802 75.3642C64.0961 74.5524 64.4271 73.7954 65.0124 73.2328C65.601 72.6669 66.3603 72.3857 67.1187 72.3857C67.9171 72.3857 68.7147 72.6976 69.3105 73.3172L74.3546 78.563C74.6078 78.8265 74.9604 78.9688 75.3262 78.9579C75.6915 78.9459 76.0344 78.7794 76.2697 78.4999L85.5872 67.4351C86.1101 66.814 86.8434 66.4337 87.6524 66.3644C88.4603 66.2947 89.2489 66.5449 89.87 67.068C90.4911 67.5909 90.8713 68.3245 90.9407 69.1334C91.01 69.9423 90.7601 70.7301 90.2371 71.351Z" fill="#FFB800"/>
<path d="M77 50.7383C62.9331 50.7383 51.4889 62.1824 51.4889 76.2493C51.4889 90.3162 62.9331 101.761 77 101.761C91.0669 101.761 102.511 90.3162 102.511 76.2493C102.511 62.1824 91.0669 50.7383 77 50.7383ZM77 99.1824C64.3547 99.1824 54.067 88.8947 54.067 76.2495C54.067 63.6043 64.3547 53.3164 77 53.3164C89.6453 53.3164 99.9329 63.6042 99.9329 76.2493C99.9329 88.8945 89.6453 99.1824 77 99.1824Z" fill="#FFB800"/>
<path d="M108.239 80.6807C109.064 79.3974 110 77.9429 110 76.2493C110 74.5557 109.064 73.1011 108.239 71.8179C107.686 70.9587 107.164 70.1472 106.997 69.4118C106.818 68.6271 106.938 67.6407 107.064 66.5963C107.253 65.0341 107.449 63.4187 106.737 61.9465C106.014 60.4485 104.55 59.5509 103.258 58.7589C102.373 58.2162 101.537 57.7037 101.051 57.0956C100.56 56.4811 100.242 55.5491 99.9063 54.5624C99.4201 53.1342 98.8691 51.5155 97.576 50.4845C96.2897 49.459 94.5917 49.2809 93.0936 49.1241C92.051 49.0147 91.0661 48.9116 90.3491 48.5663C89.6567 48.2327 88.9751 47.5381 88.2535 46.803C87.1881 45.7172 85.9805 44.4867 84.3425 44.1149C82.7652 43.7569 81.2427 44.3035 79.7699 44.832C78.7683 45.1914 77.8226 45.5309 77 45.5309C76.1774 45.5309 75.2315 45.1914 74.2301 44.832C72.7572 44.3034 71.2344 43.7567 69.6574 44.1149C68.0195 44.4868 66.8119 45.7173 65.7464 46.803C65.0249 47.5381 64.3435 48.2327 63.651 48.5663C62.9339 48.9116 61.9492 49.0147 60.9064 49.1241C59.4083 49.2809 57.7102 49.4588 56.424 50.4844C55.1311 51.5153 54.58 53.1339 54.0939 54.562C53.7579 55.5489 53.4406 56.481 52.9491 57.0955C52.4628 57.7037 51.6267 58.2162 50.7418 58.7589C49.4502 59.5509 47.9863 60.4483 47.2626 61.9465C46.5513 63.4186 46.747 65.0339 46.9361 66.596C47.0626 67.6404 47.1821 68.6269 47.0033 69.4117C46.8358 70.1472 46.3139 70.9587 45.7612 71.8179C44.9357 73.1013 44 74.5558 44 76.2493C44 77.9429 44.9357 79.3974 45.7612 80.6807C46.3139 81.5399 46.8358 82.3513 47.0033 83.0867C47.1819 83.8715 47.0624 84.8579 46.9361 85.9023C46.7469 87.4645 46.5513 89.0798 47.2626 90.5521C47.9863 92.0501 49.4503 92.9477 50.7418 93.7397C51.6269 94.2824 52.4628 94.7949 52.9491 95.403C53.4404 96.0174 53.7577 96.9494 54.0937 97.9362C54.5799 99.3644 55.1309 100.983 56.424 102.014C57.7103 103.04 59.4083 103.218 60.9064 103.375C61.949 103.484 62.9339 103.587 63.6509 103.932C64.3433 104.266 65.0249 104.96 65.7465 105.696C66.8119 106.781 68.0195 108.012 69.6575 108.384C71.2348 108.742 72.7574 108.195 74.2301 107.667C75.2317 107.307 76.1774 106.968 77 106.968C77.8226 106.968 78.7685 107.307 79.7699 107.667C80.9139 108.077 82.0877 108.498 83.294 108.498C83.6407 108.498 83.9903 108.463 84.3426 108.384C85.9805 108.012 87.1881 106.781 88.2536 105.695C88.9751 104.96 89.6565 104.266 90.349 103.932C91.0661 103.587 92.0508 103.484 93.0936 103.374C94.5917 103.218 96.2898 103.04 97.576 102.014C98.8689 100.983 99.42 99.3645 99.9061 97.9365C100.242 96.9496 100.559 96.0174 101.051 95.403C101.537 94.7948 102.373 94.2822 103.258 93.7395C104.55 92.9475 106.014 92.0501 106.737 90.5519C107.449 89.0798 107.253 87.4645 107.064 85.9024C106.937 84.858 106.818 83.8715 106.997 83.0867C107.164 82.3513 107.686 81.5399 108.239 80.6807ZM106.071 79.2861C105.422 80.2945 104.751 81.3375 104.483 82.5146C104.205 83.7365 104.357 84.9952 104.505 86.2126C104.656 87.4606 104.798 88.6395 104.416 89.4307C104.021 90.2477 102.996 90.8764 101.911 91.542C100.876 92.1766 99.8052 92.8329 99.0374 93.793C98.2642 94.7598 97.8583 95.9526 97.4657 97.1059C97.0573 98.3053 96.6717 99.4381 95.9689 99.9985C95.2718 100.554 94.0833 100.679 92.8249 100.811C91.6088 100.938 90.3513 101.07 89.2301 101.61C88.1318 102.139 87.2582 103.029 86.4134 103.89C85.5175 104.803 84.671 105.665 83.772 105.869C82.9278 106.061 81.8172 105.662 80.6408 105.24C79.4758 104.822 78.271 104.39 77 104.39C75.729 104.39 74.5242 104.822 73.3592 105.24C72.1828 105.662 71.0722 106.061 70.2282 105.869C69.3289 105.665 68.4826 104.803 67.5866 103.89C66.7416 103.029 65.8682 102.139 64.7698 101.61C63.6487 101.07 62.3912 100.938 61.1751 100.811C59.9167 100.679 58.7283 100.554 58.0312 99.9985C57.3281 99.438 56.9424 98.305 56.5342 97.1057C56.1416 95.9525 55.7356 94.7598 54.9626 93.7932C54.1947 92.8329 53.1244 92.1767 52.0894 91.542C51.004 90.8765 49.9787 90.2479 49.5838 89.4307C49.2015 88.6394 49.3443 87.4605 49.4953 86.2124C49.6427 84.9953 49.7951 83.7367 49.5171 82.5148C49.2491 81.3376 48.5782 80.2946 47.9294 79.2862C47.2345 78.2057 46.5781 77.1853 46.5781 76.2493C46.5781 75.3133 47.2345 74.2929 47.9294 73.2125C48.5782 72.2041 49.2491 71.1611 49.5171 69.9839C49.7951 68.762 49.6429 67.5034 49.4954 66.286C49.3442 65.0379 49.2016 63.8591 49.5838 63.0678C49.9787 62.2508 51.0039 61.6222 52.0894 60.9566C53.1244 60.322 54.1948 59.6656 54.9626 58.7055C55.7358 57.7387 56.1417 56.546 56.5343 55.3926C56.9427 54.1933 57.3283 53.0605 58.0311 52.5001C58.7282 51.9443 59.9167 51.8199 61.1751 51.688C62.3912 51.5606 63.6487 51.4289 64.7699 50.8888C65.8682 50.3598 66.7418 49.4695 67.5866 48.6087C68.4825 47.6955 69.329 46.8331 70.228 46.6291C71.0722 46.4377 72.1829 46.8364 73.3592 47.2585C74.5242 47.6766 75.729 48.109 77 48.109C78.271 48.109 79.4758 47.6767 80.6408 47.2585C81.8172 46.8365 82.9278 46.4371 83.7718 46.6291C84.6711 46.8331 85.5173 47.6955 86.4134 48.6086C87.2584 49.4695 88.1318 50.3598 89.2302 50.8887C90.3513 51.4288 91.6088 51.5605 92.8249 51.6879C94.0833 51.8196 95.2717 51.9441 95.9688 52.5001C96.6719 53.0606 97.0576 54.1936 97.4658 55.3929C97.8585 56.5461 98.2644 57.7387 99.0374 58.7054C99.8053 59.6656 100.876 60.3219 101.911 60.9566C102.996 61.622 104.021 62.2507 104.416 63.0678C104.799 63.8592 104.656 65.038 104.505 66.2861C104.357 67.5033 104.205 68.7619 104.483 69.9838C104.751 71.161 105.422 72.2039 106.071 73.2124C106.765 74.293 107.422 75.3134 107.422 76.2493C107.422 77.1853 106.765 78.2057 106.071 79.2861Z" fill="#FFB800"/>
</svg>
