<svg width="153" height="153" viewBox="0 0 153 153" fill="none" xmlns="http://www.w3.org/2000/svg">
<circle cx="76.5" cy="76.5" r="76.5" fill="#171834"/>
<g clip-path="url(#clip0)">
<path d="M75.6177 96.4321C75.2657 96.4321 74.9137 96.2974 74.6442 96.0306L56.97 78.3564C56.453 77.8394 56.431 77.0116 56.915 76.4671L70.1617 61.6281C79.421 50.7959 94.4992 43.7861 107.647 44.0089C108.381 44.0254 108.972 44.6166 108.989 45.3509C109.294 58.5069 102.205 73.5769 91.345 82.8554L76.5307 96.0829C76.2722 96.3166 75.9422 96.4321 75.6177 96.4321ZM59.8327 77.3306L75.67 93.1679L89.5382 80.7874C99.4547 72.3119 106.041 58.8039 106.244 46.7561C94.1967 46.9569 80.6915 53.5431 72.2325 63.4376L59.8327 77.3306Z" fill="#FFB800"/>
<path d="M80.884 106.496C80.752 106.496 80.6173 106.477 80.4908 106.436C79.9958 106.271 79.5888 105.891 79.5173 105.374L77.6308 92.2102C77.5235 91.4595 78.046 90.7637 78.7968 90.6537C79.5475 90.5355 80.2433 91.0662 80.3533 91.8197L81.8273 102.105C86.6453 96.3435 89.3238 89.0395 89.3238 81.5925C89.3238 80.8335 89.9398 80.2175 90.6988 80.2175C91.4578 80.2175 92.0738 80.8335 92.0738 81.5925C92.0738 90.7032 88.3833 99.6215 81.9483 106.054C81.6733 106.329 81.2718 106.496 80.884 106.496Z" fill="#FFB800"/>
<path d="M60.9877 75.383C60.9245 75.383 60.8585 75.3803 60.7925 75.3693L47.6282 73.4828C47.1112 73.4085 46.6795 73.0483 46.5172 72.5505C46.355 72.0555 46.487 71.5083 46.8582 71.1425C53.384 64.6168 62.2995 60.9263 71.4102 60.9263C72.1692 60.9263 72.7852 61.5423 72.7852 62.3013C72.7852 63.0603 72.1692 63.6763 71.4102 63.6763C63.9275 63.6763 56.585 66.3795 50.8842 71.17L61.183 72.6468C61.9337 72.7568 62.4562 73.4498 62.349 74.2033C62.2472 74.888 61.6587 75.383 60.9877 75.383Z" fill="#FFB800"/>
<path d="M90.1157 69.7565C88.353 69.7565 86.593 69.0855 85.2537 67.7462C82.5752 65.065 82.5752 60.7035 85.2537 58.0222C87.935 55.341 92.2965 55.341 94.9777 58.0222C97.6562 60.7035 97.6562 65.065 94.9777 67.7462C93.6357 69.0882 91.8757 69.7565 90.1157 69.7565ZM90.1157 58.762C89.0597 58.762 88.001 59.1635 87.198 59.9665C85.592 61.5752 85.592 64.1932 87.198 65.802C88.8067 67.408 91.4247 67.4052 93.0335 65.802C94.6395 64.1932 94.6395 61.5752 93.0335 59.9665C92.2277 59.1662 91.1717 58.762 90.1157 58.762ZM94.0042 66.7755H94.0317H94.0042Z" fill="#FFB800"/>
<path d="M44.3749 110C44.0146 110 43.6654 109.86 43.4014 109.598C43.0439 109.241 42.9119 108.716 43.0576 108.232C43.5086 106.727 47.5484 93.434 50.4909 90.4915C53.8046 87.1777 59.1974 87.175 62.5111 90.4915C65.8249 93.8052 65.8249 99.198 62.5111 102.512C59.5686 105.454 46.2751 109.494 44.7709 109.945C44.6389 109.981 44.5069 110 44.3749 110ZM56.5024 90.7527C55.0284 90.7527 53.5571 91.3137 52.4351 92.433C50.8484 94.0225 48.2084 101.12 46.4649 106.535C51.8769 104.791 58.9774 102.151 60.5641 100.565C62.8054 98.3235 62.8054 94.6742 60.5641 92.433C59.4449 91.3137 57.9736 90.7527 56.5024 90.7527Z" fill="#FFB800"/>
</g>
<defs>
<clipPath id="clip0">
<rect width="66" height="66" fill="white" transform="translate(43 44)"/>
</clipPath>
</defs>
</svg>
