<svg width="153" height="153" viewBox="0 0 153 153" fill="none" xmlns="http://www.w3.org/2000/svg">
<circle cx="76.5" cy="76.5" r="76.5" fill="#171834"/>
<g clip-path="url(#clip0)">
<path d="M104.036 61.9073L104.034 61.8559C104.005 61.222 103.986 60.5513 103.974 59.805C103.92 56.1659 101.027 53.1558 97.3878 52.9524C89.7995 52.5289 83.9292 50.0545 78.9135 45.1656L78.8707 45.1248C77.2347 43.6248 74.7668 43.6248 73.1303 45.1248L73.0875 45.1656C68.0718 50.0545 62.2015 52.5289 54.6132 52.9529C50.9741 53.1558 48.0808 56.1659 48.0269 59.8055C48.0158 60.5467 47.9962 61.2174 47.9675 61.8559L47.9645 61.9753C47.8169 69.7131 47.6337 79.3433 50.8553 88.0842C52.6267 92.891 55.3096 97.0694 58.8288 100.504C62.837 104.416 68.0869 107.521 74.4325 109.733C74.6389 109.805 74.8534 109.864 75.072 109.908C75.3801 109.969 75.6903 110 76.0005 110C76.3107 110 76.6214 109.969 76.929 109.908C77.1476 109.864 77.3636 109.805 77.571 109.732C83.9091 107.516 89.1534 104.409 93.1581 100.498C96.6758 97.0623 99.3587 92.883 101.132 88.0752C104.365 79.3081 104.183 69.6598 104.036 61.9073ZM97.4981 86.7353C94.1002 95.948 87.164 102.275 76.2931 106.077C76.2543 106.09 76.213 106.101 76.1702 106.11C76.0579 106.132 75.9436 106.132 75.8298 106.109C75.7875 106.101 75.7462 106.09 75.7079 106.077C64.8255 102.282 57.8847 95.9586 54.4893 86.7453C51.52 78.6882 51.6881 69.8481 51.8367 62.0493L51.8377 62.006C51.8679 61.3358 51.8881 60.6338 51.8991 59.8624C51.9233 58.2466 53.2103 56.9097 54.8292 56.8195C59.1234 56.5798 62.8959 55.75 66.3623 54.2827C69.8241 52.8174 72.8987 50.7519 75.7608 47.9683C75.9063 47.8455 76.0952 47.845 76.2402 47.9683C79.1028 50.7519 82.1774 52.8174 85.6387 54.2827C89.1051 55.75 92.8776 56.5798 97.1723 56.8195C98.7912 56.9097 100.078 58.2466 100.102 59.8629C100.113 60.6384 100.134 61.3403 100.164 62.006C100.312 69.8139 100.476 78.661 97.4981 86.7353Z" fill="#FFB800"/>
<path d="M75.9996 60.5529C66.9298 60.5529 59.5514 67.9317 59.5514 77.001C59.5514 86.0708 66.9298 93.4496 75.9996 93.4496C85.0688 93.4496 92.4477 86.0708 92.4477 77.001C92.4477 67.9317 85.0688 60.5529 75.9996 60.5529ZM75.9996 89.5764C69.0653 89.5764 63.4242 83.9352 63.4242 77.001C63.4242 70.0667 69.0653 64.4256 75.9996 64.4256C82.9333 64.4256 88.5745 70.0667 88.5745 77.001C88.5745 83.9352 82.9333 89.5764 75.9996 89.5764Z" fill="#FFB800"/>
<path d="M80.7268 71.8946L73.0871 79.5343L71.0135 77.4607C70.2572 76.7044 69.0311 76.7044 68.2748 77.4607C67.519 78.217 67.519 79.4432 68.2748 80.199L71.718 83.6422C72.0961 84.0203 72.5916 84.2092 73.0871 84.2092C73.5826 84.2092 74.0781 84.0203 74.4562 83.6422L83.4656 74.6328C84.2214 73.8765 84.2214 72.6504 83.4656 71.8946C82.7092 71.1378 81.4831 71.1378 80.7268 71.8946Z" fill="#FFB800"/>
</g>
<defs>
<clipPath id="clip0">
<rect width="66" height="66" fill="white" transform="translate(43 44)"/>
</clipPath>
</defs>
</svg>
