<svg width="66" height="66" viewBox="0 0 66 66" fill="none" xmlns="http://www.w3.org/2000/svg">
<g clip-path="url(#clip0)">
<path d="M32.6177 52.4321C32.2657 52.4321 31.9137 52.2974 31.6442 52.0306L13.97 34.3564C13.453 33.8394 13.431 33.0116 13.915 32.4671L27.1617 17.6281C36.421 6.79588 51.4992 -0.213869 64.647 0.00888094C65.3812 0.0253809 65.9725 0.616631 65.989 1.35088C66.2942 14.5069 59.2047 29.5769 48.345 38.8554L33.5307 52.0829C33.2722 52.3166 32.9422 52.4321 32.6177 52.4321ZM16.8327 33.3306L32.67 49.1679L46.5382 36.7874C56.4547 28.3119 63.041 14.8039 63.2445 2.75613C51.1967 2.95688 37.6915 9.54313 29.2325 19.4376L16.8327 33.3306Z" fill="#FFB800"/>
<path d="M37.884 62.4965C37.752 62.4965 37.6173 62.4772 37.4908 62.436C36.9958 62.271 36.5888 61.8915 36.5173 61.3745L34.6308 48.2102C34.5235 47.4595 35.046 46.7637 35.7968 46.6537C36.5475 46.5355 37.2433 47.0662 37.3533 47.8197L38.8273 58.1047C43.6453 52.3435 46.3238 45.0395 46.3238 37.5925C46.3238 36.8335 46.9398 36.2175 47.6988 36.2175C48.4578 36.2175 49.0738 36.8335 49.0738 37.5925C49.0738 46.7032 45.3833 55.6215 38.9483 62.0537C38.6733 62.3287 38.2718 62.4965 37.884 62.4965Z" fill="#FFB800"/>
<path d="M17.9877 31.383C17.9245 31.383 17.8585 31.3803 17.7925 31.3693L4.62824 29.4828C4.11124 29.4085 3.67949 29.0483 3.51724 28.5505C3.35499 28.0555 3.48699 27.5083 3.85824 27.1425C10.384 20.6168 19.2995 16.9263 28.4102 16.9263C29.1692 16.9263 29.7852 17.5423 29.7852 18.3013C29.7852 19.0603 29.1692 19.6763 28.4102 19.6763C20.9275 19.6763 13.585 22.3795 7.88424 27.17L18.183 28.6468C18.9337 28.7568 19.4562 29.4498 19.349 30.2033C19.2472 30.888 18.6587 31.383 17.9877 31.383Z" fill="#FFB800"/>
<path d="M47.1157 25.7565C45.353 25.7565 43.593 25.0855 42.2537 23.7462C39.5752 21.065 39.5752 16.7035 42.2537 14.0222C44.935 11.341 49.2965 11.341 51.9777 14.0222C54.6562 16.7035 54.6562 21.065 51.9777 23.7462C50.6357 25.0882 48.8757 25.7565 47.1157 25.7565ZM47.1157 14.762C46.0597 14.762 45.001 15.1635 44.198 15.9665C42.592 17.5752 42.592 20.1932 44.198 21.802C45.8067 23.408 48.4247 23.4052 50.0335 21.802C51.6395 20.1932 51.6395 17.5752 50.0335 15.9665C49.2277 15.1662 48.1717 14.762 47.1157 14.762ZM51.0042 22.7755H51.0317H51.0042Z" fill="#FFB800"/>
<path d="M1.37489 66C1.01464 66 0.665391 65.8597 0.401391 65.5985C0.0438906 65.241 -0.0881094 64.7157 0.0576406 64.2317C0.508641 62.7275 4.54839 49.434 7.49089 46.4915C10.8046 43.1777 16.1974 43.175 19.5111 46.4915C22.8249 49.8052 22.8249 55.198 19.5111 58.5117C16.5686 61.4542 3.27514 65.494 1.77089 65.945C1.63889 65.9807 1.50689 66 1.37489 66ZM13.5024 46.7527C12.0284 46.7527 10.5571 47.3137 9.43514 48.433C7.84839 50.0225 5.20839 57.1202 3.46489 62.535C8.87689 60.7915 15.9774 58.1515 17.5641 56.5647C19.8054 54.3235 19.8054 50.6742 17.5641 48.433C16.4449 47.3137 14.9736 46.7527 13.5024 46.7527Z" fill="#FFB800"/>
</g>
<defs>
<clipPath id="clip0">
<rect width="66" height="66" fill="white"/>
</clipPath>
</defs>
</svg>
