<svg width="66" height="66" viewBox="0 0 66 66" fill="none" xmlns="http://www.w3.org/2000/svg">
<g clip-path="url(#clip0)">
<path d="M61.0355 17.9073L61.0335 17.8559C61.0048 17.222 60.9857 16.5513 60.9741 15.805C60.9202 12.1659 58.0274 9.15579 54.3878 8.95236C46.7995 8.52888 40.9292 6.05449 35.9135 1.16563L35.8707 1.12485C34.2347 -0.375194 31.7668 -0.375194 30.1303 1.12485L30.0875 1.16563C25.0718 6.05449 19.2015 8.52888 11.6132 8.95286C7.97413 9.15579 5.0808 12.1659 5.02692 15.8055C5.01584 16.5467 4.9962 17.2174 4.9675 17.8559L4.96448 17.9753C4.81694 25.7131 4.63366 35.3433 7.8553 44.0842C9.62675 48.891 12.3096 53.0694 15.8288 56.504C19.837 60.4155 25.0869 63.5208 31.4325 65.7334C31.6389 65.8054 31.8534 65.8638 32.072 65.9076C32.3801 65.969 32.6903 65.9998 33.0005 65.9998C33.3107 65.9998 33.6214 65.969 33.929 65.9076C34.1476 65.8638 34.3636 65.8049 34.571 65.7324C40.9091 63.5158 46.1534 60.409 50.1581 56.498C53.6758 53.0623 56.3587 48.883 58.1316 44.0752C61.3653 35.3081 61.1826 25.6598 61.0355 17.9073ZM54.4981 42.7353C51.1002 51.948 44.164 58.275 33.2931 62.0767C33.2543 62.0898 33.213 62.1014 33.1702 62.1099C33.0579 62.1321 32.9436 62.1321 32.8298 62.1094C32.7875 62.1009 32.7462 62.0898 32.7079 62.0767C21.8255 58.282 14.8847 51.9586 11.4893 42.7453C8.51997 34.6882 8.68815 25.8481 8.83669 18.0493L8.8377 18.006C8.86791 17.3358 8.88805 16.6338 8.89913 15.8624C8.9233 14.2466 10.2103 12.9097 11.8292 12.8195C16.1234 12.5798 19.8959 11.75 23.3623 10.2827C26.8241 8.81741 29.8987 6.75189 32.7608 3.96833C32.9063 3.84547 33.0952 3.84496 33.2402 3.96833C36.1028 6.75189 39.1774 8.81741 42.6387 10.2827C46.1051 11.75 49.8776 12.5798 54.1723 12.8195C55.7912 12.9097 57.0782 14.2466 57.1019 15.8629C57.1135 16.6384 57.1336 17.3403 57.1638 18.006C57.3119 25.8139 57.476 34.661 54.4981 42.7353Z" fill="#FFB800"/>
<path d="M32.9996 16.5529C23.9298 16.5529 16.5514 23.9317 16.5514 33.001C16.5514 42.0708 23.9298 49.4496 32.9996 49.4496C42.0688 49.4496 49.4477 42.0708 49.4477 33.001C49.4477 23.9317 42.0688 16.5529 32.9996 16.5529ZM32.9996 45.5764C26.0653 45.5764 20.4242 39.9352 20.4242 33.001C20.4242 26.0667 26.0653 20.4256 32.9996 20.4256C39.9333 20.4256 45.5745 26.0667 45.5745 33.001C45.5745 39.9352 39.9333 45.5764 32.9996 45.5764Z" fill="#FFB800"/>
<path d="M37.7268 27.8946L30.0871 35.5343L28.0135 33.4607C27.2572 32.7044 26.0311 32.7044 25.2748 33.4607C24.519 34.217 24.519 35.4432 25.2748 36.199L28.718 39.6422C29.0961 40.0203 29.5916 40.2092 30.0871 40.2092C30.5826 40.2092 31.0781 40.0203 31.4562 39.6422L40.4656 30.6328C41.2214 29.8765 41.2214 28.6504 40.4656 27.8946C39.7092 27.1378 38.4831 27.1378 37.7268 27.8946Z" fill="#FFB800"/>
</g>
<defs>
<clipPath id="clip0">
<rect width="66" height="66" fill="white"/>
</clipPath>
</defs>
</svg>
