<svg width="272" height="61" viewBox="0 0 272 61" fill="none" xmlns="http://www.w3.org/2000/svg">
<path d="M51.1593 20.3697L50.5039 27.5589H46.7898L47.4452 22.6572L43.9861 20.9143L40.3084 19.0625L37.3226 17.5738L37.0677 17.4286L33.6086 15.6857L32.9531 15.3589L31.4238 14.5964V18.1911L33.4629 19.2441L33.6086 19.3167L37.3226 21.1685L40.3084 22.6572L44.3138 24.5089L43.6584 27.5589H39.9807L40.3084 26.7964L37.3226 25.2714L35.8297 24.5453L33.6086 23.4197L31.4238 22.3304L29.3847 21.3137L27.7098 22.1125L25.525 23.2018L22.9033 24.5453L21.8474 25.0899L18.898 26.5423L19.2257 27.5589H15.5116L14.8926 24.2911L18.898 22.4393L21.8474 20.9506L25.2701 19.2441L25.525 19.0988L27.7098 18.0095V10.2756L29.3847 9.44049L31.4238 10.4935L33.4629 11.5101L33.6086 11.5828L37.0677 13.3256L37.3226 13.4345L40.3084 14.9232L41.1823 15.3589L43.9861 16.775L47.4452 18.5179L51.1593 20.3697Z" fill="#FFC225"/>
<path d="M43.9861 29.5197V33.1869H10.159C8.77537 29.2292 8.04712 25.0173 8.04712 20.8054V20.1155L11.7248 18.2637L15.1839 16.5208L17.5507 15.3226L18.8616 14.6691L21.6653 13.253L21.8474 13.1804L25.2701 11.4738L25.5614 11.6191V15.4679L21.8474 17.356L21.6653 17.4286L18.8616 18.8446L15.1839 20.6964L11.7248 22.4393L12.0161 24.7631V24.8357C12.1981 26.2518 12.453 27.6679 12.7807 29.0476L12.89 29.5197H43.9861Z" fill="white"/>
<path d="M47.955 35.3655C44.0589 44.0798 37.5775 49.0542 33.4265 51.4869V47.2024C41.1095 42.0828 44.0589 35.3655 44.0589 35.3655H47.955Z" fill="white"/>
<path d="M40.709 35.1476C37.5775 40.5215 33.7542 43.4625 31.5331 44.8423V52.5762C30.4407 53.1209 29.7124 53.4113 29.5668 53.4476C29.3847 53.375 28.6929 53.1209 27.6005 52.5762C23.8501 50.6881 15.7301 45.6048 11.1422 35.4018H15.0383C15.0383 35.4018 18.461 43.2084 27.5641 48.4369V44.8423C25.3065 43.4262 21.5561 40.5215 18.4246 35.184H22.7213C22.7213 35.184 25.7799 39.7226 29.5304 41.9012C33.2808 39.6863 36.3395 35.184 36.3395 35.184H40.709V35.1476Z" fill="#FFC225"/>
<path d="M66.0883 24.9083H68.71C70.6763 24.9083 73.48 25.7071 74.7909 27.0143L71.3681 29.6286C70.7491 28.7934 69.6567 28.2851 68.71 28.2851H66.0883C64.2677 28.2851 62.7748 29.2655 62.7748 30.4637C62.7748 33.4411 75.0822 32.2429 75.0822 38.7786C75.0822 41.8286 71.6958 44.3339 67.5448 44.3339H64.9231C62.8841 44.3339 59.9347 43.5351 58.5874 42.228L61.9737 39.6137C62.6292 40.4488 63.8672 40.9571 64.9231 40.9571H67.5448C69.5475 40.9571 71.1497 39.9768 71.1497 38.7786C71.1497 35.4381 58.8423 36.9631 58.8423 30.4637C58.8423 27.3774 62.083 24.9083 66.0883 24.9083Z" fill="white"/>
<path d="M84.8406 44.5518C80.6896 44.5518 77.3033 41.2476 77.3033 37.181V31.9887C77.3033 27.922 80.6896 24.6179 84.8406 24.6179H87.4623C91.6133 24.6179 94.9997 27.922 94.9997 31.9887V37.181C94.9997 41.2476 91.6133 44.5518 87.4623 44.5518H84.8406ZM87.4987 41.175C89.5014 41.175 91.1036 39.3595 91.1036 37.181V31.9887C91.1036 29.8101 89.5014 27.9946 87.4987 27.9946H84.8406C82.838 27.9946 81.2358 29.8101 81.2358 31.9887V37.181C81.2358 39.3595 82.838 41.175 84.8406 41.175H87.4987Z" fill="white"/>
<path d="M111.349 40.9208L113.169 44.2976H101.845C99.8061 44.2976 98.1312 42.7726 98.1312 40.8845V24.9083H102.064V40.9208H111.349Z" fill="white"/>
<path d="M118.777 24.9083V44.2976H114.844V24.9083H118.777Z" fill="white"/>
<path d="M126.241 24.9083H131.521C135.672 24.9083 139.059 28.2125 139.059 32.2792V36.9268C139.059 40.9934 135.672 44.2976 131.521 44.2976H122.527V28.3214C122.527 26.4333 124.166 24.9083 126.241 24.9083ZM135.126 32.2792C135.126 30.1006 133.524 28.2851 131.521 28.2851H126.46V40.9571H131.521C133.524 40.9571 135.126 39.1417 135.126 36.9631V32.2792Z" fill="white"/>
<path d="M146.232 24.9083V44.2976H142.299V24.9083H146.232Z" fill="white"/>
<path d="M152.895 28.2488H148.999V24.872H154.971L152.895 28.2488ZM154.243 44.2976V28.3214C154.243 26.4333 155.881 24.9083 157.957 24.9083H163.783V28.2851H158.211V44.2976H154.243Z" fill="white"/>
<path d="M179.804 24.9083H183.991L178.275 34.0946C177.656 35.075 177 35.8375 176.345 36.3095V44.2976H172.412V36.3458C171.72 35.8375 171.065 35.075 170.446 34.0583L164.729 24.872H168.917L174.342 33.2958L179.804 24.9083Z" fill="white"/>
<path d="M186.176 41.7196L188.288 38.3429H193.531L190.218 28.8298L184.756 44.2976H180.569L186.285 28.0673C186.977 26.1429 188.142 24.6542 190.182 24.6542C192.221 24.6542 193.422 26.1429 194.078 28.0673L199.794 44.2976H195.607L194.697 41.7196H186.176Z" fill="#FFC225"/>
<path d="M205.802 24.9083V36.9268C205.802 39.1053 207.405 40.9208 209.407 40.9208H211.519C213.522 40.9208 215.124 39.1053 215.124 36.9268V24.9083H219.056V36.9268C219.056 40.9934 215.67 44.2976 211.519 44.2976H209.371C205.22 44.2976 201.833 40.9934 201.833 36.9268V24.9083H205.802Z" fill="#FFC225"/>
<path d="M226.193 24.9083H231.473C235.624 24.9083 239.01 28.2125 239.01 32.2792V36.9268C239.01 40.9934 235.624 44.2976 231.473 44.2976H222.479V28.3214C222.479 26.4333 224.154 24.9083 226.193 24.9083ZM235.078 32.2792C235.078 30.1006 233.476 28.2851 231.473 28.2851H226.412V40.9571H231.473C233.476 40.9571 235.078 39.1417 235.078 36.9631V32.2792Z" fill="#FFC225"/>
<path d="M246.184 24.9083V44.2976H242.251V24.9083H246.184Z" fill="#FFC225"/>
<path d="M252.847 28.2488H248.951V24.872H254.923L252.847 28.2488ZM254.231 44.2976V28.3214C254.231 26.4333 255.869 24.9083 257.945 24.9083H263.771V28.2851H258.163V44.2976H254.231Z" fill="#FFC225"/>
</svg>
