<svg width="153" height="153" viewBox="0 0 153 153" fill="none" xmlns="http://www.w3.org/2000/svg">
<circle cx="76.5" cy="76.5" r="76.5" fill="#171834"/>
<path d="M110 88.666C110 79.0459 103.518 70.6408 94.3772 68.108C93.8026 54.7173 82.7308 44 69.2012 44C55.305 44 44 55.305 44 69.2012C44 73.73 45.2055 78.1395 47.4946 82.0107L44.0927 94.3092L56.3916 90.9078C59.9501 93.0121 63.9644 94.1974 68.1075 94.3762C70.6398 103.517 79.0454 110 88.666 110C92.506 110 96.2403 108.977 99.5213 107.034L109.907 109.907L107.034 99.5213C108.977 96.2403 110 92.506 110 88.666ZM57.0019 86.7264L49.6391 88.7632L51.676 81.4004L51.2117 80.6743C49.0238 77.2513 47.8672 73.2839 47.8672 69.2012C47.8672 57.4375 57.4375 47.8672 69.2012 47.8672C80.9649 47.8672 90.5352 57.4375 90.5352 69.2012C90.5352 80.9649 80.9649 90.5352 69.2012 90.5352C65.1185 90.5352 61.1516 89.3785 57.728 87.1906L57.0019 86.7264ZM104.361 104.361L98.8974 102.849L98.1678 103.324C95.3394 105.161 92.0533 106.133 88.666 106.133C81.1049 106.133 74.4606 101.244 72.1066 94.2337C83.685 92.8988 92.8988 83.685 94.2342 72.1061C101.244 74.4606 106.133 81.1049 106.133 88.666C106.133 92.0533 105.161 95.3394 103.324 98.1678L102.849 98.8974L104.361 104.361Z" fill="#FFB800"/>
<path d="M67.2676 78.9336H71.1348V82.8008H67.2676V78.9336Z" fill="#FFB800"/>
<path d="M73.0684 63.3359C73.0684 64.4342 72.6212 65.4478 71.8095 66.1905L67.2676 70.3477V75.0664H71.1348V72.0507L74.4204 69.0436C76.0186 67.5808 76.9355 65.5007 76.9355 63.3359C76.9355 59.071 73.4662 55.6016 69.2012 55.6016C64.9362 55.6016 61.4668 59.071 61.4668 63.3359H65.334C65.334 61.2034 67.0687 59.4688 69.2012 59.4688C71.3337 59.4688 73.0684 61.2034 73.0684 63.3359Z" fill="#FFB800"/>
</svg>
